<svg xmlns="http://www.w3.org/2000/svg" viewBox="0 0 16 16"><defs><style>.icon-vs-out{fill:#f6f6f6;}.cls-1{fill:#424242;}.bscrol-cell{fill:#c27d1a;}</style></defs><title>MenuPanel_16x</title><g id="canvas"><rect class="icon-vs-out" width="16" height="16" style="opacity:0"/></g><g id="menuIcon"><polygon class="icon-vs-out" points="10 3 10 0 0 0 0 3 0 5 0 16 16 16 16 3 10 3"/><path class="cls-1" d="M9,4V1H1V15H15V4ZM2,2H8V4H2ZM14,14H2V11H14ZM3,10V9H13v1ZM14,8H2V5H14Z"/><rect class="cls-1" x="3" y="6" width="7" height="1"/><rect class="cls-1" x="3" y="12" width="6" height="1"/><path class="cls-1" d="M1,8v3H15V8Zm12,2H3V9H13Z"/></g><g id="panelBadge" transform="translate(8,8) scale(0.5)"><path class="icon-vs-out" d="M0 0h16v16H0z"/><path class="cls-1" d="M 1 1 L 1 15 L 15 15 L 15 1 L 1 1 Z M 14 14 L 2 14 L 2 4 L 14 4 L 14 14 Z"/><path style="fill:#f0eff1" d="M 14 14 L 2 14 L 2 4 L 14 4 L 14 14 Z"/><path class="bscrol-cell" d="M 2 4 L 14 4 L 14 6.5 L 2 6.5 Z"/><path class="cls-1" d="M 3 8.5 L 13 8.5 L 13 9.5 L 3 9.5 Z"/><path class="cls-1" d="M 3 11 L 9 11 L 9 12 L 3 12 Z"/></g></svg>
