<?xml version="1.0" encoding="utf-8"?>
<svg xmlns="http://www.w3.org/2000/svg" viewBox="0 0 16 16">
  <defs>
    <style>.icon-canvas-transparent,.icon-vs-out{fill:#f6f6f6;}.icon-canvas-transparent{opacity:0;}.icon-vs-bg{fill:#424242;}</style>
  </defs>
  <title>Library_16x</title>
  <g id="canvas">
    <path class="icon-canvas-transparent" d="M16,0V16H0V0Z"/>
  </g>
  <g>
    <g id="outline">
      <path class="icon-vs-out" d="M16,2V15H0V2H5V1h6V2Z"/>
    </g>
  </g>
  <g id="iconBg">
    <path class="icon-vs-bg" d="M11,3V14h4V3Zm3,10H12V12h2Zm0-2H12V10h2Zm0-5H12V4h2ZM6,14h4V2H6ZM7,3H9V4H7Zm0,7H9v1H7Zm0,2H9v1H7ZM1,14H5V3H1ZM2,4H4V6H2Zm0,6H4v1H2Zm0,2H4v1H2Z"/>
  </g>
  <path class="icon-canvas-transparent" d="M -0.021 5.921 L 11.709 5.921 L 11.709 16.266 L -0.021 16.266 L -0.021 5.921 Z" id="path-1" style="stroke-width: 1;"/>
  <path class="icon-vs-out" d="M 1.079 6.567 L 7.025 6.567 L 7.757 7.861 L 9.874 7.861 C 10.479 7.861 10.974 8.296 10.974 8.83 L 10.974 14.003 C 10.974 14.538 10.479 14.972 9.874 14.972 L 1.079 14.972 C 0.472 14.972 -0.021 14.538 -0.021 14.003 L -0.021 7.538 C -0.021 7.003 0.472 6.567 1.079 6.567 Z" id="path-2" style="stroke-width: 1;"/>
  <path class="icon-folder" d="M 9.874 8.507 L 7.305 8.507 L 6.571 7.214 L 1.079 7.214 C 0.877 7.214 0.711 7.359 0.711 7.538 L 0.711 14.003 C 0.711 14.182 0.876 14.326 1.079 14.326 L 9.874 14.326 C 10.077 14.328 10.242 14.182 10.243 14.003 L 10.243 8.83 C 10.242 8.651 10.077 8.507 9.874 8.507 Z M 9.509 11.093 L 1.445 11.093 L 1.445 7.86 L 6.118 7.86 L 6.852 9.153 L 9.509 9.153 L 9.509 11.093 Z" id="path-3" style="fill: rgb(220, 182, 122); stroke-width: 1;"/>
  <path class="icon-vs-fg" d="M 1.445 11.093 L 1.445 7.86 L 5.843 7.86 L 6.852 9.153 L 9.509 9.153 L 9.509 11.093 L 1.445 11.093 Z" id="iconFg" style="fill: rgb(240, 239, 241); stroke-width: 1;"/>
</svg>