<svg xmlns="http://www.w3.org/2000/svg" viewBox="0 0 122.88 120.45"><defs><style>.cls-1{fill:#00e087;}.cls-1,.cls-2,.cls-3{stroke:#93ec2e;stroke-miterlimit:10;}.cls-2{fill:#fff;}.cls-3{fill:#00bbbd;fill-rule:evenodd;}</style></defs><g id="Слой_2" data-name="Слой 2"><rect class="cls-1" x="66.57" y="4.52" width="48.23" height="16.17"/><rect class="cls-1" x="4.74" y="24.61" width="111.91" height="89.74"/><g id="Слой_3" data-name="Слой 3"><rect class="cls-2" x="23" y="36.09" width="77.2" height="15.13"/><rect class="cls-2" x="23" y="63.48" width="77.2" height="14.87"/></g></g><g id="Layer_1" data-name="Layer 1"><path class="cls-3" d="M8.89,0H114a8.91,8.91,0,0,1,8.89,8.89V111.57a8.92,8.92,0,0,1-8.89,8.89H8.89A8.92,8.92,0,0,1,0,111.57V8.89A8.9,8.9,0,0,1,8.89,0ZM66.17,91.29H96.66a3.56,3.56,0,0,1,3.54,3.54v6.69a3.57,3.57,0,0,1-3.54,3.54H66.17a3.56,3.56,0,0,1-3.54-3.54V94.83a3.55,3.55,0,0,1,3.54-3.54ZM26.23,60.79H96.65a6.22,6.22,0,0,1,4.41,1.84h0a6.22,6.22,0,0,1,1.83,4.41V75.9a6.24,6.24,0,0,1-1.83,4.41h0a6.22,6.22,0,0,1-4.41,1.83H26.23a6.26,6.26,0,0,1-4.41-1.83h0A6.22,6.22,0,0,1,20,75.9V67.05a6.26,6.26,0,0,1,1.83-4.41h0a6.22,6.22,0,0,1,4.41-1.84Zm70.42,5.42H26.23a.82.82,0,0,0-.83.83v8.85a.82.82,0,0,0,.83.83H96.65a.82.82,0,0,0,.83-.83V67a.82.82,0,0,0-.83-.83ZM26.23,33H96.65a6.26,6.26,0,0,1,4.41,1.83h0a6.22,6.22,0,0,1,1.83,4.41V48.1a6.24,6.24,0,0,1-1.83,4.41h0a6.22,6.22,0,0,1-4.41,1.83H26.23a6.26,6.26,0,0,1-4.41-1.83h0A6.22,6.22,0,0,1,20,48.1V39.25a6.26,6.26,0,0,1,1.83-4.41h0A6.26,6.26,0,0,1,26.23,33Zm70.42,5.42H26.23a.82.82,0,0,0-.83.83V48.1a.82.82,0,0,0,.83.83H96.65a.82.82,0,0,0,.83-.83V39.25a.82.82,0,0,0-.83-.83ZM114.8,27H8.46v82.6a2.46,2.46,0,0,0,.72,1.74,2.42,2.42,0,0,0,1.74.72H112.3a2.46,2.46,0,0,0,1.74-.72,2.42,2.42,0,0,0,.72-1.74V27ZM105.53,9.64A4.39,4.39,0,1,1,101.14,14a4.4,4.4,0,0,1,4.39-4.39Zm-29.77,0A4.39,4.39,0,1,1,71.37,14a4.4,4.4,0,0,1,4.39-4.39Zm14.88,0A4.39,4.39,0,1,1,86.25,14a4.4,4.4,0,0,1,4.39-4.39Z"/></g></svg>